<svg xmlns="http://www.w3.org/2000/svg" width="23.5" height="10.281" viewBox="422 1293.406 23.5 10.281"><g data-name="103307_attachment_icon"><g data-name="mail"><path d="M427.14 1303.687c-.06-.003-1.252.006-2.532-.628-1.283-.609-2.633-2.05-2.608-4.512-.026-2.463 1.325-3.903 2.608-4.512 1.28-.634 2.471-.625 2.532-.628 0-.002 14.687-.002 16.156 0 .995-.026 1.7.592 1.943 1.139.265.545.257 1.002.261 1.063l-.001 2.938c-.004.061.005.518-.26 1.062-.243.548-.947 1.166-1.943 1.14h-13.218c-.995.026-1.7-.593-1.943-1.14-.266-.543-.257-1-.26-1.062-.026-.994.59-1.7 1.14-1.943.543-.266 1.001-.257 1.062-.26h11.75v1.469h-11.75c0 .004-.022-.001-.108.012a1.079 1.079 0 0 0-.297.094c-.185.124-.304.153-.33.627.007 0 0 .023.015.109.014.085.045.2.093.297.124.185.153.303.628.328h13.218c.367-.012.447-.1.546-.201a.928.928 0 0 0 .175-.424.371.371 0 0 0 .012-.108l.002-2.938c-.006 0 .001-.023-.014-.108a1.116 1.116 0 0 0-.093-.297c-.125-.186-.153-.303-.629-.33H427.14c0 .007-.207 0-.567.061-.362.06-.844.181-1.307.413-.921.493-1.772 1.256-1.798 3.199.012 1.468.512 2.236 1.131 2.766.622.524 1.43.759 1.974.846.36.062.567.06.567.06h16.156v1.468H427.14Z" fill="#8f8f8f" fill-rule="evenodd" data-name="Path 145"/></g></g></svg>