<svg xmlns="http://www.w3.org/2000/svg" width="28.256" height="30" viewBox="1118.5 611 28.256 30"><g data-name="Layer 32"><path d="M1132.621 641a5 5 0 0 1-5-5 1 1 0 1 1 2 0 3 3 0 0 0 .88 2.12 3.06 3.06 0 0 0 4.24 0 1.004 1.004 0 0 1 1.42 1.42 5 5 0 0 1-3.54 1.46Z" fill="#101820" fill-rule="evenodd" data-name="Path 141"/><path d="M1132.621 616a1 1 0 0 1-1-1v-3a1 1 0 0 1 2 0v3a1 1 0 0 1-1 1Z" fill="#101820" fill-rule="evenodd" data-name="Path 142"/><path d="m1118.5 614.197 1.364-1.463 26.892 25.077-1.364 1.463-26.892-25.077z" fill="#101820" fill-rule="evenodd" data-name="Rectangle 71"/><path d="M1143.351 637h-21.73a1 1 0 0 1-.89-1.45 18.08 18.08 0 0 0 1.89-8V624a8 8 0 0 1 .06-1 1.01 1.01 0 1 1 2 .28 6 6 0 0 0-.06.72v3.53a20.07 20.07 0 0 1-1.45 7.47h20.18a1 1 0 0 1 0 2Z" fill="#101820" fill-rule="evenodd" data-name="Path 143"/><path d="M1141.681 630a1 1 0 0 1-1-.92c-.04-.513-.06-1.03-.06-1.55V624a8 8 0 0 0-12.07-6.88 7.66 7.66 0 0 0-2.58 2.45 1.004 1.004 0 1 1-1.68-1.1 9.74 9.74 0 0 1 3.25-3.07 9.95 9.95 0 0 1 12.15 1.54 9.86 9.86 0 0 1 2.93 7.06v3.53c0 .46 0 .91.06 1.37a1 1 0 0 1-.92 1.1Z" fill="#101820" fill-rule="evenodd" data-name="Path 144"/></g></svg>