<svg xmlns="http://www.w3.org/2000/svg" width="20.113" height="15.471" viewBox="492.85 753.765 20.113 15.471"><g data-name="211634_camera_icon"><path d="M511.338 756.23h-3.264l-1.953-1.972s-.01-.01-.015-.01l-.01-.01h0a1.582 1.582 0 0 0-1.126-.473h-4.06c-.475 0-.895.203-1.19.527v.004l-1.91 1.934h-3.336c-.9 0-1.624.706-1.624 1.606v9.77c0 .9.725 1.63 1.624 1.63h16.864c.894 0 1.624-.73 1.624-1.63v-9.77c0-.9-.73-1.606-1.624-1.606Zm-8.432 10.564a4.477 4.477 0 0 1 0-8.954 4.478 4.478 0 0 1 0 8.954Zm8.127-7.977a.68.68 0 0 1-.677-.682.68.68 0 0 1 .677-.681.68.68 0 0 1 .677.681.68.68 0 0 1-.677.682Z" stroke-linejoin="round" stroke-linecap="round" stroke="#000" fill="transparent" data-name="Path 139"/><path d="M502.906 758.933a3.377 3.377 0 0 0-3.375 3.384 3.38 3.38 0 0 0 3.375 3.385 3.38 3.38 0 0 0 3.375-3.385 3.38 3.38 0 0 0-3.375-3.384Z" stroke-linejoin="round" stroke-linecap="round" stroke="#000" fill="transparent" data-name="Path 140"/></g></svg>