<svg xmlns="http://www.w3.org/2000/svg" width="59.652" height="59.652" viewBox="1187.014 221 59.652 59.652"><g data-name="370089_clock_stopwatch_time_alarm_alert_icon"><path d="M1216.822 228.16c-14.498 0-26.247 11.752-26.247 26.248a26.138 26.138 0 0 0 6.427 17.194l-6.14 7.527 1.848 1.507 5.95-7.291c4.715 4.523 11.111 7.307 18.163 7.307 7.067 0 13.477-2.798 18.197-7.342l5.947 7.335 1.854-1.503-6.144-7.58a26.136 26.136 0 0 0 6.393-17.154c0-14.496-11.754-26.247-26.248-26.247Zm0 50.106c-13.157 0-23.86-10.702-23.86-23.858 0-13.159 10.703-23.861 23.86-23.861 13.158 0 23.861 10.702 23.861 23.86 0 13.157-10.703 23.86-23.86 23.86Z" fill="#37404d" fill-rule="evenodd" data-name="Path 135"/><path d="M1206.033 221h-7.089c-6.59 0-11.93 5.34-11.93 11.93v7.18h3.392l15.627-15.715V221Zm-2.387 2.412-14.232 14.312h-.014v-4.794c0-5.261 4.281-9.544 9.544-9.544h4.702v.026Z" fill="#37404d" fill-rule="evenodd" data-name="Path 136"/><path d="M1234.736 221h-7.093v3.395l15.628 15.715h3.395v-7.18c0-6.59-5.343-11.93-11.93-11.93Zm9.544 16.724h-.016l-14.235-14.312v-.026h4.707c5.262 0 9.544 4.283 9.544 9.544v4.794Z" fill="#37404d" fill-rule="evenodd" data-name="Path 137"/><path d="M1215.647 254.405h-13.154v2.386h15.54v-21.474h-2.386v19.088Z" fill="#37404d" fill-rule="evenodd" data-name="Path 138"/></g></svg>