<svg xmlns="http://www.w3.org/2000/svg" width="17.686" height="17.686" viewBox="174.726 266.397 17.686 17.686"><g data-name="211606_clock_icon"><g data-name="Path 87"><path d="M183.57 266.397a8.842 8.842 0 0 0-8.844 8.843 8.842 8.842 0 0 0 8.843 8.843 8.842 8.842 0 0 0 8.843-8.843 8.842 8.842 0 0 0-8.843-8.843Zm0 16.95c-4.47 0-8.108-3.634-8.108-8.107 0-4.468 3.635-8.107 8.107-8.107 4.468 0 8.108 3.635 8.108 8.107 0 4.468-3.64 8.108-8.108 8.108Z" fill="#b7b7b7" fill-rule="evenodd"/><path d="M183.57 266.397a8.842 8.842 0 0 0-8.844 8.843 8.842 8.842 0 0 0 8.843 8.843 8.842 8.842 0 0 0 8.843-8.843 8.842 8.842 0 0 0-8.843-8.843Zm0 16.95c-4.47 0-8.108-3.634-8.108-8.107 0-4.468 3.635-8.107 8.107-8.107 4.468 0 8.108 3.635 8.108 8.107 0 4.468-3.64 8.108-8.108 8.108Z" stroke-linejoin="round" stroke-linecap="round" stroke-width=".6" stroke="#b7b7b7" fill="transparent"/></g><g data-name="Path 88"><path d="M183.785 275.58h-4.464v.804h5.268v-6.757h-.804v5.952Z" fill="#b7b7b7" fill-rule="evenodd"/><path d="M183.785 275.58h-4.464v.804h5.268v-6.757h-.804v5.952Z" stroke-linejoin="round" stroke-linecap="round" stroke-width=".6" stroke="#b7b7b7" fill="transparent"/></g></g></svg>