<svg xmlns="http://www.w3.org/2000/svg" width="37.204" height="37.204"><g data-name="Layer_3"><path d="M18.602 0C8.333 0 0 8.333 0 18.602s8.333 18.602 18.548 18.602c10.215 0 18.603-8.333 18.656-18.602C37.151 8.333 28.871.054 18.602 0Zm0 35.591c-9.355 0-16.99-7.634-16.99-16.989s7.635-16.99 16.99-16.99c9.355 0 16.99 7.582 16.99 16.936-.054 9.409-7.635 16.99-16.99 17.043Z" fill="#d40e0e" fill-rule="evenodd" data-name="Path 132"/><path d="m23.548 12.527-4.946 4.946-4.946-4.946-1.13 1.129 4.947 4.946-4.946 4.946 1.129 1.13 4.946-4.947 4.946 4.946 1.13-1.129-4.947-4.946 4.946-4.946-1.129-1.13Z" fill="#d40e0e" fill-rule="evenodd" data-name="Path 134"/></g></svg>