<svg xmlns="http://www.w3.org/2000/svg" width="29.371" height="17.133" viewBox="0 266.397 29.371 17.133"><g data-name="211739_eye_icon"><path d="M29.302 274.98c-3.465-3.994-8.253-8.583-14.616-8.583-2.57 0-4.926.727-7.412 2.28-2.096 1.315-4.245 3.166-7.198 6.21l-.076.077.512.528c4.215 4.313 7.856 8.038 14.174 8.038 2.791 0 5.499-.91 8.275-2.784 2.364-1.598 4.376-3.625 5.99-5.262l.42-.42-.069-.085Zm-14.616 6.103a6.127 6.127 0 0 1-6.12-6.12 6.127 6.127 0 0 1 6.12-6.118 6.127 6.127 0 0 1 6.119 6.119 6.127 6.127 0 0 1-6.12 6.119Z" fill="#b7b7b7" fill-rule="evenodd" data-name="Path 58"/><path d="M14.257 272.73c0-.527.153-1.025.42-1.438-2.026 0-3.663 1.653-3.663 3.687a3.672 3.672 0 0 0 3.664 3.68 3.679 3.679 0 0 0 3.671-3.68c-.413.268-.91.42-1.438.42a2.674 2.674 0 0 1-2.654-2.669Z" fill="#b7b7b7" fill-rule="evenodd" data-name="Path 59"/></g></svg>