<svg xmlns="http://www.w3.org/2000/svg" width="17.5" height="12.935" viewBox="565.75 1291.25 17.5 12.935"><g data-name="290132_gallery_image_photo_photography_picture_icon"><path d="M581.978 1304.435h-14.456c-.84 0-1.522-.682-1.522-1.522v-9.891c0-.84.681-1.522 1.522-1.522h14.456c.84 0 1.522.681 1.522 1.522v9.891c0 .84-.681 1.522-1.522 1.522Zm.761-11.413c0-.42-.34-.761-.76-.761h-14.457c-.42 0-.761.34-.761.76v9.892c0 .42.34.76.76.76h14.457c.42 0 .761-.34.761-.76v-9.891Zm-1.395 9.022-2.41-2.41-1.376 1.377 1.268 1.268a.372.372 0 0 1-.525.526l-5.453-5.454-4.692 4.693a.372.372 0 0 1-.526-.526l4.91-4.91c.012-.017.02-.038.036-.054a.37.37 0 0 1 .272-.107.37.37 0 0 1 .272.107c.016.016.023.037.036.055l3.877 3.876 1.594-1.594c.012-.017.02-.038.036-.054a.37.37 0 0 1 .272-.107.37.37 0 0 1 .272.107c.016.016.023.037.036.054l2.627 2.627a.372.372 0 0 1-.526.526Zm-4.692-5.979a1.522 1.522 0 1 1 0-3.043 1.522 1.522 0 0 1 0 3.043Zm0-2.282a.761.761 0 1 0 0 1.522.761.761 0 0 0 0-1.522Z" fill="#8f8f8f" fill-rule="evenodd"/><path d="M581.978 1304.435h-14.456c-.84 0-1.522-.682-1.522-1.522v-9.891c0-.84.681-1.522 1.522-1.522h14.456c.84 0 1.522.681 1.522 1.522v9.891c0 .84-.681 1.522-1.522 1.522Zm.761-11.413c0-.42-.34-.761-.76-.761h-14.457c-.42 0-.761.34-.761.76v9.892c0 .42.34.76.76.76h14.457c.42 0 .761-.34.761-.76v-9.891Zm-1.395 9.022-2.41-2.41-1.376 1.377 1.268 1.268a.372.372 0 0 1-.525.526l-5.453-5.454-4.692 4.693a.372.372 0 0 1-.526-.526l4.91-4.91c.012-.017.02-.038.036-.054a.37.37 0 0 1 .272-.107.37.37 0 0 1 .272.107c.016.016.023.037.036.055l3.877 3.876 1.594-1.594c.012-.017.02-.038.036-.054a.37.37 0 0 1 .272-.107.37.37 0 0 1 .272.107c.016.016.023.037.036.054l2.627 2.627a.372.372 0 0 1-.526.526Zm-4.692-5.979a1.522 1.522 0 1 1 0-3.043 1.522 1.522 0 0 1 0 3.043Zm0-2.282a.761.761 0 1 0 0 1.522.761.761 0 0 0 0-1.522Z" stroke-linejoin="round" stroke-linecap="round" stroke-width=".5" stroke="#8f8f8f" fill="transparent"/></g></svg>