<svg width="22" height="18" viewBox="0 0 22 18" fill="none" xmlns="http://www.w3.org/2000/svg">
<path d="M14.6667 6.3V2.7L22 9L14.6667 15.3V11.7H7.33333V6.3H14.6667ZM12.8333 15.3V15.2253C11.7535 15.8418 10.5032 16.2 9.16667 16.2C5.12325 16.2 1.83333 12.9699 1.83333 9C1.83333 5.0301 5.12325 1.8 9.16667 1.8C10.5032 1.8 11.7535 2.1582 12.8333 2.7747V0.7542C11.7095 0.2718 10.4711 0 9.16667 0C4.10483 0 0 4.0293 0 9C0 13.9707 4.10483 18 9.16667 18C10.4711 18 11.7095 17.7282 12.8333 17.2458V15.3Z" fill="#A6A5A6"/>
</svg>
