<svg width="20" height="16" viewBox="0 0 20 16" fill="none" xmlns="http://www.w3.org/2000/svg">
<path d="M1.66699 3.83325L8.47109 8.59612C9.02207 8.9818 9.29756 9.17465 9.59721 9.24934C9.8619 9.31532 10.1387 9.31532 10.4034 9.24934C10.7031 9.17465 10.9786 8.9818 11.5296 8.59612L18.3337 3.83325M5.66699 14.6666H14.3337C15.7338 14.6666 16.4339 14.6666 16.9686 14.3941C17.439 14.1544 17.8215 13.772 18.0612 13.3016C18.3337 12.7668 18.3337 12.0667 18.3337 10.6666V5.33325C18.3337 3.93312 18.3337 3.23306 18.0612 2.69828C17.8215 2.22787 17.439 1.84542 16.9686 1.60574C16.4339 1.33325 15.7338 1.33325 14.3337 1.33325H5.66699C4.26686 1.33325 3.5668 1.33325 3.03202 1.60574C2.56161 1.84542 2.17916 2.22787 1.93948 2.69828C1.66699 3.23306 1.66699 3.93312 1.66699 5.33325V10.6666C1.66699 12.0667 1.66699 12.7668 1.93948 13.3016C2.17916 13.772 2.56161 14.1544 3.03202 14.3941C3.5668 14.6666 4.26686 14.6666 5.66699 14.6666Z" stroke="#98A2B3" stroke-width="1.5" stroke-linecap="round" stroke-linejoin="round"/>
</svg>
