<svg width="17" height="18" viewBox="0 0 17 18" fill="none" xmlns="http://www.w3.org/2000/svg">
<mask id="mask0_104_8505" style="mask-type:alpha" maskUnits="userSpaceOnUse" x="0" y="0" width="17" height="18">
<path fill-rule="evenodd" clip-rule="evenodd" d="M12.706 4.23529C12.706 6.57438 10.8098 8.47059 8.4707 8.47059C6.13161 8.47059 4.2354 6.57438 4.2354 4.23529C4.2354 1.89621 6.13161 0 8.4707 0C10.8098 0 12.706 1.89621 12.706 4.23529ZM16.9412 16.9412V15.8824C16.9412 14.1975 16.2719 12.5816 15.0804 11.3902C13.889 10.1988 12.2731 9.52943 10.5882 9.52943H6.35294C4.66804 9.52943 3.05214 10.1988 1.86073 11.3902C0.669326 12.5816 0 14.1975 0 15.8824V16.9412C0 17.222 0.111555 17.4913 0.310122 17.6899C0.50869 17.8885 0.778006 18 1.05882 18H15.8824C16.1632 18 16.4325 17.8885 16.6311 17.6899C16.8296 17.4913 16.9412 17.222 16.9412 16.9412Z" fill="#A3A8AE"/>
</mask>
<g mask="url(#mask0_104_8505)">
<path d="M15.0804 11.3902L13.6662 12.8044L15.0804 11.3902ZM1.86073 11.3902L3.27495 12.8044L1.86073 11.3902ZM0.310122 17.6899L-1.10409 19.1041L0.310122 17.6899ZM16.6311 17.6899L18.0453 19.1041L16.6311 17.6899ZM8.4707 10.4706C11.9144 10.4706 14.706 7.67895 14.706 4.23529H10.706C10.706 5.46981 9.70522 6.47059 8.4707 6.47059V10.4706ZM2.2354 4.23529C2.2354 7.67895 5.02704 10.4706 8.4707 10.4706V6.47059C7.23618 6.47059 6.2354 5.46981 6.2354 4.23529H2.2354ZM8.4707 -2C5.02704 -2 2.2354 0.791636 2.2354 4.23529H6.2354C6.2354 3.00078 7.23618 2 8.4707 2V-2ZM14.706 4.23529C14.706 0.791636 11.9144 -2 8.4707 -2V2C9.70522 2 10.706 3.00078 10.706 4.23529H14.706ZM14.9412 15.8824V16.9412H18.9412V15.8824H14.9412ZM13.6662 12.8044C14.4826 13.6207 14.9412 14.7279 14.9412 15.8824H18.9412C18.9412 13.667 18.0611 11.5424 16.4947 9.97595L13.6662 12.8044ZM10.5882 11.5294C11.7427 11.5294 12.8499 11.988 13.6662 12.8044L16.4947 9.97595C14.9282 8.40946 12.8036 7.52943 10.5882 7.52943V11.5294ZM6.35294 11.5294H10.5882V7.52943H6.35294V11.5294ZM3.27495 12.8044C4.09128 11.988 5.19847 11.5294 6.35294 11.5294V7.52943C4.1376 7.52943 2.013 8.40946 0.44652 9.97595L3.27495 12.8044ZM2 15.8824C2 14.7279 2.45861 13.6207 3.27495 12.8044L0.44652 9.97595C-1.11996 11.5424 -2 13.667 -2 15.8824H2ZM2 16.9412V15.8824H-2V16.9412H2ZM1.72434 16.2757C1.90084 16.4522 2 16.6916 2 16.9412H-2C-2 17.7524 -1.67773 18.5305 -1.10409 19.1041L1.72434 16.2757ZM1.05882 16C1.30844 16 1.54783 16.0992 1.72433 16.2757L-1.10409 19.1041C-0.53045 19.6777 0.24757 20 1.05882 20V16ZM15.8824 16H1.05882V20H15.8824V16ZM15.2168 16.2757C15.3933 16.0992 15.6327 16 15.8824 16V20C16.6936 20 17.4716 19.6777 18.0453 19.1041L15.2168 16.2757ZM14.9412 16.9412C14.9412 16.6916 15.0403 16.4522 15.2168 16.2757L18.0453 19.1041C18.6189 18.5305 18.9412 17.7524 18.9412 16.9412H14.9412Z" fill="#A3A8AE"/>
</g>
</svg>
