<svg width="18" height="18" viewBox="0 0 18 18" fill="none" xmlns="http://www.w3.org/2000/svg">
<path d="M18 9.9795V8.0205L16.161 7.56C16.1003 7.25475 16.02 6.95625 15.9225 6.666L17.2838 5.349L16.3043 3.65175L14.4802 4.173C14.2762 3.94125 14.0588 3.72375 13.827 3.51975L14.3483 1.69575L12.651 0.71625L11.334 2.0775C11.0438 1.98 10.7453 1.89975 10.44 1.839L9.9795 0H8.0205L7.56 1.839C7.25475 1.89975 6.95625 1.98 6.666 2.07825L5.34825 0.71625L3.65175 1.69575L4.173 3.5205C3.94125 3.72375 3.72375 3.942 3.51975 4.173L1.69575 3.65175L0.71625 5.34825L2.0775 6.666C1.98 6.95625 1.89975 7.25475 1.839 7.56L0 8.0205V9.9795L1.839 10.44C1.9005 10.7453 1.98 11.0438 2.0775 11.334L0.71625 12.651L1.69575 14.3483L3.51975 13.827C3.72375 14.058 3.94125 14.2762 4.173 14.4802L3.65175 16.3043L5.349 17.2838L6.666 15.9218C6.95625 16.02 7.25475 16.0995 7.56 16.161L8.0205 18H9.9795L10.44 16.161C10.7453 16.0995 11.0438 16.02 11.334 15.9218L12.651 17.2838L14.3483 16.3043L13.827 14.4802C14.0588 14.2762 14.2762 14.058 14.4802 13.827L16.3043 14.3483L17.2838 12.651L15.9225 11.334C16.0207 11.0438 16.1003 10.7453 16.161 10.44L18 9.9795V9.9795ZM9 12C7.34325 12 6 10.6568 6 9C6 7.34325 7.34325 6 9 6C10.6568 6 12 7.34325 12 9C12 10.6568 10.6568 12 9 12Z" fill="#A6A5A6"/>
</svg>
